<svg version="1.1" x="0px" y="0px" width="290" height="237" xmlns="http://www.w3.org/2000/svg" xmlns:xlink="http://www.w3.org/1999/xlink" xmlns:a="http://ns.adobe.com/AdobeSVGViewerExtensions/3.0/" xml:space="preserve"><g transform="translate(20.002807617188 20.317991692211) scale(2.0232621092191 2.02333936498) rotate(0 61.780029296875 38.300994873047)"><path d="M122.536 53.825c-.285-1.154-.665-2.285-.908-3.134-.119-.425-.253-.772-.338-1.017l-.136-.383-1.056-.554c-.467-.235-1.024-.525-1.63-.813a58.049 58.049 0 00-1.934-6.294 7.92 7.92 0 011.491.315c.484.157.952.35 1.361.54.816.377 1.396.74 1.396.74l-.639-1.358c-.364-.818-.969-1.861-1.517-2.914-.577-1.042-1.212-2.048-1.66-2.809l-.815-1.234-1.157-.273c-.5-.117-1.124-.251-1.786-.375a58.046 58.046 0 00-3.441-5.611c.956-.142 2.111-.063 2.977.11.883.164 1.531.372 1.531.372l-.948-1.16a144.08 144.08 0 00-2.198-2.44c-.848-.843-1.66-1.7-2.316-2.3l-1.09-.995-1.184.018c-.51.011-1.156.047-1.826.092a58.548 58.548 0 00-4.732-4.588c.895-.378 2.011-.56 2.918-.634.901-.067 1.572-.018 1.572-.018l-.329-.248a15.415 15.415 0 00-.882-.633l-1.268-.864a23.44 23.44 0 00-1.469-.953c-1.015-.625-2.02-1.247-2.811-1.657l-1.293-.708s-.457.111-1.149.32c-.497.147-1.108.334-1.741.538a58.378 58.378 0 00-5.728-3.276c.771-.586 1.808-1.034 2.668-1.326.43-.147.813-.255 1.09-.327.274-.068.438-.096.438-.096s-.135-.064-.381-.157l-1.02-.383-1.434-.537c-.525-.193-1.102-.361-1.666-.547-.569-.177-1.128-.372-1.666-.519l-1.468-.391-1.034-.274c-.248-.067-.395-.092-.395-.092s-1.251.713-2.594 1.553a57.918 57.918 0 00-6.357-1.743c.602-.771 1.49-1.449 2.251-1.946.759-.494 1.376-.796 1.376-.796l-1.492-.171c-.448-.047-.965-.119-1.523-.164l-1.75-.111c-1.184-.1-2.377-.079-3.262-.098-.885-.021-1.476.01-1.476.01s-1.032 1.001-2.122 2.146a59.284 59.284 0 00-6.528-.106l-.064.003c.392-.89 1.084-1.774 1.697-2.442C61.704.446 62.226 0 62.226 0s-.594.083-1.486.205l-1.514.217-1.722.329c-1.17.201-2.321.5-3.182.711l-1.038.256c-.25.063-.39.11-.39.11s-.753 1.226-1.526 2.608c-2.184.392-4.326.9-6.416 1.526.16-.954.612-1.988 1.041-2.788.427-.799.823-1.362.823-1.362l-1.39.57c-.414.172-.897.372-1.416.585l-1.587.747c-1.083.486-2.124 1.067-2.906 1.483l-.941.508-.348.208s-.424 1.375-.83 2.904a58.242 58.242 0 00-5.822 3.085c-.099-.99.091-2.08.305-2.961.215-.877.459-1.518.459-1.518l-1.208.891c-.732.515-1.654 1.286-2.573 2.039-.929.742-1.781 1.578-2.446 2.159-.332.291-.59.557-.774.739l-.288.286-.048 1.192c-.016.52-.037 1.15-.038 1.821a58.726 58.726 0 00-4.866 4.433c-.326-.921-.451-2.058-.445-2.944-.005-.899.075-1.577.075-1.577l-.958 1.153c-.569.693-1.272 1.667-1.99 2.61-.675.984-1.348 1.958-1.83 2.702l-.771 1.26s.262 1.389.665 2.941a58.445 58.445 0 00-3.622 5.497c-.538-.808-.929-1.872-1.17-2.748-.222-.866-.307-1.54-.307-1.54l-.182.373c-.11.238-.291.565-.464.981-.347.833-.854 1.911-1.272 3.028-.412 1.121-.853 2.215-1.101 3.072-.27.844-.448 1.407-.448 1.407s.196.428.521 1.065c.238.461.539 1.026.858 1.61a57.973 57.973 0 00-2.137 6.24c-.723-.647-1.36-1.58-1.811-2.37a10.318 10.318 0 01-.518-1.007l-.176-.412s-.14.584-.275 1.476c-.137.891-.369 2.06-.479 3.251l-.195 1.732c-.054.554-.074 1.074-.105 1.516l-.09 1.473s.3.365.784.902c.344.388.774.86 1.228 1.344a58.484 58.484 0 00-.51 6.577c-.86-.446-1.709-1.19-2.343-1.843C.387 58.1 0 57.553 0 57.553l.015.411.091 1.085c.085.896.157 2.084.346 3.264l.242 1.726c.078.549.195 1.058.272 1.493l.279 1.447.264.191c.165.12.411.29.713.49.429.289.963.639 1.523.996.048.416.104.828.161 1.242l9.575-7.923c0-.048-.004-.095-.004-.143 0-26.759 21.692-48.452 48.452-48.452s48.453 21.692 48.453 48.452c0 .048-.004.095-.004.143l12.217 10.108c.038-.842.029-1.868.051-2.895-.01-1.191-.078-2.379-.106-3.262-.06-.885-.122-1.472-.122-1.472l-.884-.798c-.388-.343-.862-.76-1.38-1.188a59.454 59.454 0 00-.043-2.859 59.138 59.138 0 00-.268-3.719c.457.169.929.407 1.364.678.431.272.835.575 1.184.86.698.568 1.169 1.063 1.169 1.063s-.413-2.366-1.024-4.666z" fill="#6e6d6d"></path><path d="M83.054 33.492c-3.055-1.938-6.412-3.247-9.779-4.523-1.44-.546-2.83-.947-4.234-1.198l23.854 19.738c-1.982-5.412-4.936-10.906-9.841-14.017zm-21.125-17.26c-24.427 0-44.367 19.207-45.544 43.342l4.416-3.654c.208-1.247.497-2.479.889-3.682 1.077-3.302 2.862-6.279 4.519-9.313 1.729-3.166 3.253-6.557 5.668-9.277 2.146-2.417 4.745-4.403 7.329-6.326 2.485-1.849 5.117-3.397 8.09-4.319 3.739-1.159 7.571-1.86 11.425-2.513 2.692-.458 5.419-.495 8.128-.166 2.577.313 5.092.959 7.656 1.322 1.723.244 3.65.207 5.221 1.054 1.485.8 2.762 1.864 4.081 2.903 2.878 2.265 5.792 4.484 8.358 7.111 1.269 1.297 2.604 2.666 3.491 4.261.851 1.529 1.396 3.169 1.993 4.806 1.267 3.466 3.527 6.416 4.604 9.973.426 1.408.729 2.836.932 4.271l4.289 3.55c-1.178-24.137-21.118-43.343-45.545-43.343zm34.349 25.515c-.657-1.854-1.282-3.807-2.517-5.37a36.922 36.922 0 00-3.87-4.184c-2.744-2.544-5.715-4.89-8.709-7.133-.93-.697-1.934-1.478-3.086-1.75-.855-.202-1.715-.305-2.586-.398-1.703-.184-3.375-.565-5.061-.873-3.891-.712-7.731-1.091-11.66-.422-3.858.653-7.767 1.308-11.48 2.58-2.844.974-5.338 2.485-7.72 4.303-2.563 1.957-5.216 3.933-7.244 6.471-2.239 2.802-3.75 6.181-5.46 9.317-1.624 2.976-3.353 5.895-4.237 9.194-.101.379-.193.759-.279 1.141l11.461-9.484c1.129-2.412 2.297-4.859 3.865-6.96 1.886-2.527 4.225-4.728 6.834-6.5 3.417-2.323 7.326-4.088 11.401-4.825l5.998-4.964 5.671 4.692c.768.086 1.53.221 2.287.431 2.019.556 4.025 1.333 5.958 2.132 4.474 1.848 9.235 4.029 12.336 7.903 2.729 3.412 4.831 7.483 6.289 11.769l7.235 5.986a23.816 23.816 0 00-.811-3.085c-1.191-3.508-3.379-6.485-4.615-9.971zm-58.279-1.576a45.715 45.715 0 00-1.629 2.865L53.998 28.45c-3.43 1.018-6.681 2.731-9.474 4.846-2.516 1.906-4.847 4.182-6.525 6.875z" fill="#cc8c56"></path><path d="M54.414 59.098h6.292v-6.293h-6.292v6.293zm8.739-6.293v6.293h6.292v-6.293h-6.292zm-8.739 14.596h6.292v-6.293h-6.292v6.293zm8.739 0h6.292v-6.293h-6.292v6.293z" fill="#000000"></path><path d="M110.191 65.995l-2.709-2.242-4.004-3.314-1.28-1.058-6.248-5.17-1.367-1.13-9.729-8.051-10.917-9.034-10.142-8.392-.085-.07-1.029-.852-.056-.045-.696-.576-.554.459-1.124.929-27.198 22.506-2.292 1.895-9.052 7.491-1.323 1.094-4.01 3.318-2.709 2.242-9.142 7.564-1.227 1.016-1.5 1.241-.949.786H9.97l4.741-3.924 2.473-2.047 3.837-3.173 1.154-.956 6.206-5.134 1.461-1.21 6.781-5.611 2.007-1.661 20.757-17.175 1.658-1.372.884-.731.68.562 1.417 1.172L86.82 54.204l1.973 1.632 6.884 5.696 1.208 1 4.733 3.916 1.118.926 3.939 3.257 2.472 2.047 4.743 3.924H123.01l-3.974-3.288z" fill="#673515"></path></g>
<g transform="translate(43.346557617188 202.30358688104)  scale(0.66768348497312 0.66768348497312)"><text dominant-baseline="auto" alignment-baseline="auto" font-family="CallingHeart" font-size="62px" fill="#cc8c56" letter-spacing="0" xml:space="preserve">Toussaint</text></g>
<g transform="translate(185.01843261719 200.31273824579)  scale(0.66768348497312 0.66768348497312)"><text dominant-baseline="auto" alignment-baseline="auto" font-family="Shintia Script" font-size="62px" fill="#934f18" letter-spacing="0" xml:space="preserve">Bois</text></g>
<g transform="translate(28.985198974609 207.29563162635) scale(1.1028524303649 1.1028524303649) rotate(0 105 4.2554998397827)"><path d="M168.008,8.511C201.65,8.511,210,2.849,210,2.849c-23.127,6.907-63.686,3.271-88.341,0.687
 C94.476,0.684,67.803,0,67.803,0C17.556,0,0,6.962,0,6.962s20.732-4.604,67.803-4.604c0,0,29.455,0.654,53.712,2.749
      C145.772,7.201,159.092,8.511,168.008,8.511z" fill="#673515"></path></g>
</svg>